<?xml version="1.0" encoding="utf-8"?>
<!-- Svg Vector Icons : http://www.onlinewebfonts.com/icon -->
<!DOCTYPE svg PUBLIC "-//W3C//DTD SVG 1.1//EN" "http://www.w3.org/Graphics/SVG/1.1/DTD/svg11.dtd">
<svg version="1.1" xmlns="http://www.w3.org/2000/svg" xmlns:xlink="http://www.w3.org/1999/xlink" x="0px" y="0px" viewBox="0 0 256 256" enable-background="new 0 0 256 256" xml:space="preserve">
<metadata> Svg Vector Icons : http://www.onlinewebfonts.com/icon </metadata>
<g><g><g><path fill="#000000" d="M108.9,10.7c-4,1.2-8.2,4.3-10.4,7.6c-3.9,5.7-3.7,2.4-3.7,71v62.2l-5.5-2.6c-12.1-5.7-30.7-10.7-37.4-10.2c-9.9,0.8-18.1,8.8-19.9,19.6c-0.6,3.3-0.5,4.5,0.4,7.9c2.4,9.3,8.1,14.1,19,16.4c11.6,2.4,24.2,8.1,33.9,15.4c6.1,4.6,15.8,14.2,19,18.9c6.6,9.8,14.1,16.7,23.6,21.5c15.4,7.9,32,9.6,48.7,5.4c7-1.8,18-7.4,23.9-12.2c11.6-9.4,19.6-22.5,22.9-37.3c0.9-4.1,1-9.4,1-55.3V88.1l-1.5-3.2c-2.1-4.5-4.5-7.1-8.9-9.5c-3.4-1.9-4.1-2-9-2c-4.5,0-5.8,0.2-8.4,1.5l-3.1,1.5l-1.7-3c-3.1-5.4-7.5-8.6-13.8-9.9c-3.9-0.8-8.5-0.1-12.3,1.9c-1.2,0.7-2.5,1.2-2.7,1.2s-0.9-0.9-1.5-2.1c-1.5-2.9-5.8-6.6-9.1-8.2c-3.8-1.7-10.6-1.7-14.4,0l-2.8,1.2l-0.2-16.3c-0.2-16.3-0.2-16.4-1.7-19.7c-3.2-6.9-9.7-11.2-17.3-11.6C113.2,9.9,110.5,10.2,108.9,10.7z M118.8,20.2c2.8,1.2,4.2,2.4,5.6,5.1c1.1,2.1,1.1,4.3,1.1,50.4v48.2l1.5,1.4c1.9,1.9,4.1,1.9,6.3-0.2l1.7-1.7V97.7c0-25.4,0-25.6,1.4-28.2c1.4-2.8,5.2-5.3,8.1-5.3s6.7,2.5,8.2,5.3c1.3,2.6,1.3,2.8,1.3,28.4c0.1,19.3,0.2,25.9,0.8,26.6c2,2.6,5.3,2.8,7.5,0.4c1.1-1.2,1.2-2,1.2-22.6c0-19.7,0.1-21.5,1.1-23.8c3.5-7.7,15.5-7.7,19,0c1,2.3,1.1,4.1,1.1,23v20.6l1.5,1.4c1.7,1.8,4.4,1.9,6.3,0.4c1.4-1.1,1.4-1.2,1.7-17.9l0.3-16.8l1.7-2.1c4.5-6,12.8-6,17.4,0l1.7,2.1v50.3c0,49.8,0,50.3-1.3,55.1c-7.3,27.5-33.6,45.2-61.6,41.5c-9.3-1.2-18.7-4.7-25.9-9.6c-4.1-2.8-10.2-9.2-13-13.5c-3.2-5-11.3-13.8-17.4-18.8c-6.8-5.7-13.1-9.8-20.7-13.3c-7.8-3.7-12.2-5.3-20.2-7.1c-8.5-1.9-11-3.5-12.9-8.1c-2.4-5.8,0.8-13.3,6.9-16.5c2.9-1.5,4.6-1.4,12.8,0.4c9.7,2.2,17.4,5,27.6,10c4.9,2.4,9.6,4.4,10.3,4.4c0.8,0,2.1-0.7,3-1.5l1.4-1.5l0.3-67.1c0.3-60.9,0.4-67.3,1.2-68.9C108.1,20.1,113.8,18.1,118.8,20.2z"/></g></g></g>
</svg>